<mxfile host="app.diagrams.net" agent="Mozilla/5.0 (Windows NT 10.0; Win64; x64) AppleWebKit/537.36 (KHTML, like Gecko) Chrome/132.0.0.0 Safari/537.36" version="26.0.11">
  <diagram name="Página-1" id="mN-hfw5plJFuL7ScY01_">
    <mxGraphModel dx="1434" dy="1941" grid="1" gridSize="10" guides="1" tooltips="1" connect="1" arrows="1" fold="1" page="1" pageScale="1" pageWidth="827" pageHeight="1169" math="0" shadow="0">
      <root>
        <mxCell id="0" />
        <mxCell id="1" parent="0" />
        <mxCell id="ptm7Rjp7Gewy6nkSTzc5-12" style="edgeStyle=orthogonalEdgeStyle;rounded=0;orthogonalLoop=1;jettySize=auto;html=1;exitX=0.5;exitY=1;exitDx=0;exitDy=0;entryX=0;entryY=0.5;entryDx=0;entryDy=0;" parent="1" source="ptm7Rjp7Gewy6nkSTzc5-2" target="ptm7Rjp7Gewy6nkSTzc5-10" edge="1">
          <mxGeometry relative="1" as="geometry" />
        </mxCell>
        <mxCell id="ptm7Rjp7Gewy6nkSTzc5-2" value="" style="rounded=0;whiteSpace=wrap;html=1;" parent="1" vertex="1">
          <mxGeometry x="190" width="310" height="400" as="geometry" />
        </mxCell>
        <mxCell id="ptm7Rjp7Gewy6nkSTzc5-1" value="" style="rounded=1;whiteSpace=wrap;html=1;" parent="1" vertex="1">
          <mxGeometry x="260" y="150" width="170" height="40" as="geometry" />
        </mxCell>
        <mxCell id="ptm7Rjp7Gewy6nkSTzc5-3" value="" style="rounded=1;whiteSpace=wrap;html=1;" parent="1" vertex="1">
          <mxGeometry x="260" y="220" width="170" height="40" as="geometry" />
        </mxCell>
        <mxCell id="ptm7Rjp7Gewy6nkSTzc5-4" value="" style="rounded=1;whiteSpace=wrap;html=1;" parent="1" vertex="1">
          <mxGeometry x="260" y="290" width="170" height="40" as="geometry" />
        </mxCell>
        <mxCell id="ptm7Rjp7Gewy6nkSTzc5-5" value="Seleccione una opción" style="text;html=1;align=center;verticalAlign=middle;whiteSpace=wrap;rounded=0;" parent="1" vertex="1">
          <mxGeometry x="240" y="90" width="220" height="30" as="geometry" />
        </mxCell>
        <mxCell id="ptm7Rjp7Gewy6nkSTzc5-6" value="" style="rounded=0;whiteSpace=wrap;html=1;" parent="1" vertex="1">
          <mxGeometry x="550" width="330" height="400" as="geometry" />
        </mxCell>
        <mxCell id="ptm7Rjp7Gewy6nkSTzc5-7" value="Numero de turno" style="rounded=0;whiteSpace=wrap;html=1;" parent="1" vertex="1">
          <mxGeometry x="605" y="110" width="220" height="160" as="geometry" />
        </mxCell>
        <mxCell id="ptm7Rjp7Gewy6nkSTzc5-13" style="edgeStyle=orthogonalEdgeStyle;rounded=0;orthogonalLoop=1;jettySize=auto;html=1;exitX=1;exitY=0.5;exitDx=0;exitDy=0;entryX=0.75;entryY=1;entryDx=0;entryDy=0;" parent="1" source="ptm7Rjp7Gewy6nkSTzc5-10" target="ptm7Rjp7Gewy6nkSTzc5-6" edge="1">
          <mxGeometry relative="1" as="geometry" />
        </mxCell>
        <mxCell id="ptm7Rjp7Gewy6nkSTzc5-10" value="&lt;div&gt;&lt;font style=&quot;font-size: 48px;&quot;&gt;APP&lt;/font&gt;&lt;/div&gt;Generar el turno.&lt;div&gt;&lt;br&gt;&lt;/div&gt;&lt;div&gt;A1&lt;/div&gt;&lt;div&gt;&lt;span style=&quot;background-color: transparent; color: light-dark(rgb(0, 0, 0), rgb(255, 255, 255));&quot;&gt;B2&lt;/span&gt;&lt;/div&gt;&lt;div&gt;C3&lt;/div&gt;&lt;div&gt;&lt;br&gt;&lt;/div&gt;&lt;div&gt;Letra seguido del numero de turno&lt;/div&gt;&lt;div&gt;Guardar en la base de datos.&lt;/div&gt;" style="rounded=0;whiteSpace=wrap;html=1;" parent="1" vertex="1">
          <mxGeometry x="410" y="490" width="270" height="300" as="geometry" />
        </mxCell>
        <mxCell id="ptm7Rjp7Gewy6nkSTzc5-14" value="&lt;font style=&quot;font-size: 48px;&quot;&gt;FRONT&lt;/font&gt;" style="text;html=1;align=center;verticalAlign=middle;whiteSpace=wrap;rounded=0;" parent="1" vertex="1">
          <mxGeometry x="510" y="-70" width="60" height="30" as="geometry" />
        </mxCell>
      </root>
    </mxGraphModel>
  </diagram>
</mxfile>
